<svg xmlns="http://www.w3.org/2000/svg" viewBox="0 0 64 64">
  <defs>
    <filter id="shadow" x="-20%" y="-20%" width="140%" height="140%">
      <feDropShadow dx="1" dy="1" stdDeviation="1" flood-color="#C4A8A2" flood-opacity="0.3"/>
    </filter>
  </defs>
  <!-- 星星 -->
  <path d="M32 4 L38 24 L58 24 L42 36 L48 56 L32 44 L16 56 L22 36 L6 24 L26 24 Z" fill="#F0E6E6" stroke="#C4A8A2" stroke-width="2" filter="url(#shadow)"/>
  <!-- 中心爱心 -->
  <path d="M32 28 C28 24 22 26 22 31 C22 36 32 42 32 42 C32 42 42 36 42 31 C42 26 36 24 32 28Z" fill="#D4B5B5"/>
  <!-- 装饰 -->
  <circle cx="12" cy="20" r="2" fill="#C4A8A2"/>
  <circle cx="52" cy="20" r="2" fill="#C4A8A2"/>
  <circle cx="10" cy="44" r="1.5" fill="#C4A8A2"/>
  <circle cx="54" cy="44" r="1.5" fill="#C4A8A2"/>
</svg>
